<svg width="57" height="40" viewBox="0 0 57 40" fill="none" xmlns="http://www.w3.org/2000/svg">
<path d="M45.125 31.935C43.8357 32.9106 42.1393 33.4309 40.1036 33.4309C37.7286 33.4309 35.9643 32.8455 34.8107 31.6098C33.6571 30.439 33.0464 28.813 33.0464 26.7967V24.2602H38.6107C44.5143 24.2602 49.0607 23.1545 52.25 20.9431C55.4393 18.7317 57 15.6098 57 11.5122C57 8.26016 55.7107 5.52845 53.2 3.31707C50.6893 1.10569 47.3643 0 43.2929 0C39.1536 0 33.25 2.14634 30.4 5.00813C30.0607 4.55285 29.5857 4.09756 29.1107 3.70732C28.975 3.57723 28.8393 3.44716 28.7036 3.38212C25.9214 1.10569 22.1214 0 17.4393 0C14.3179 0 11.5357 0.520325 9.025 1.56098C6.51429 2.60163 4.54643 4.03252 3.05358 5.9187C1.56072 7.73984 0.882144 9.7561 0.882144 11.8374H9.90714C9.90714 10.3415 10.5857 9.04065 11.875 8.06504C13.1643 7.08943 14.8607 6.56911 16.8964 6.56911C19.2714 6.56911 21.0357 7.15447 22.1893 8.39024C23.3429 9.56098 23.9536 11.187 23.9536 13.2033V15.7398H18.3893C12.4857 15.7398 7.93929 16.8455 4.75 19.0569C1.56072 21.2683 0 24.3902 0 28.4878C0 31.7398 1.28929 34.4715 3.8 36.6829C6.31072 38.8943 9.63572 40 13.6393 40C17.7786 40 23.6821 37.8537 26.5321 34.9919C26.8714 35.4472 27.3464 35.9024 27.8214 36.2927C27.9572 36.4228 28.0929 36.5528 28.2286 36.6179C31.0107 38.8943 34.8107 40 39.4929 40C42.6143 40 45.3964 39.4797 47.9071 38.439C50.4179 37.3984 52.3857 35.9675 53.8786 34.0813C55.3714 32.1951 56.05 30.2439 56.05 28.1626H47.025C47.0929 29.7236 46.4143 30.9593 45.125 31.935ZM32.9786 11.5772C33.7929 10.1463 34.9464 9.04065 36.5071 8.26016C38.0679 7.41463 39.7643 7.02439 41.5286 7.02439C43.4286 7.02439 44.9893 7.54472 46.1429 8.52033C47.2964 9.49594 47.8393 10.8618 47.8393 12.4878C47.8393 14.5041 47.025 16.1301 45.3286 17.2358C43.6321 18.3415 41.1214 18.9268 37.7964 18.9268H32.9107V11.5772H32.9786ZM23.9536 28.4878C23.1393 29.9187 21.9857 31.0244 20.425 31.8049C18.8643 32.6504 17.1679 33.0406 15.4036 33.0406C13.5036 33.0406 11.9429 32.5203 10.7893 31.5447C9.56786 30.6341 8.95714 29.2683 8.95714 27.6423C8.95714 25.626 9.77143 24 11.4679 22.8943C13.1643 21.7886 15.675 21.2033 19 21.2033H23.8857V28.4878H23.9536Z" fill="#2F80ED"/>
</svg>
